<svg width="107" height="30" viewBox="0 0 107 30" fill="none" xmlns="http://www.w3.org/2000/svg">
<path fill-rule="evenodd" clip-rule="evenodd" d="M24.947 8.104C27.1562 8.104 28.947 6.31314 28.947 4.104C28.947 1.89487 27.1562 0.104004 24.947 0.104004C22.7379 0.104004 20.947 1.89487 20.947 4.104C20.947 6.31314 22.7379 8.104 24.947 8.104Z" fill="#FF2D33"/>
<path fill-rule="evenodd" clip-rule="evenodd" d="M24.947 18.8892C27.1562 18.8892 28.947 17.0983 28.947 14.8892C28.947 12.68 27.1562 10.8892 24.947 10.8892C22.7379 10.8892 20.947 12.68 20.947 14.8892C20.947 17.0983 22.7379 18.8892 24.947 18.8892Z" fill="#D53D5C"/>
<path fill-rule="evenodd" clip-rule="evenodd" d="M24.947 29.6744C27.1562 29.6744 28.947 27.8836 28.947 25.6745C28.947 23.4653 27.1562 21.6744 24.947 21.6744C22.7379 21.6744 20.947 23.4653 20.947 25.6745C20.947 27.8836 22.7379 29.6744 24.947 29.6744Z" fill="#815EAD"/>
<path fill-rule="evenodd" clip-rule="evenodd" d="M14.4736 18.8892C16.6828 18.8892 18.4736 17.0983 18.4736 14.8892C18.4736 12.68 16.6828 10.8892 14.4736 10.8892C12.2645 10.8892 10.4736 12.68 10.4736 14.8892C10.4736 17.0983 12.2645 18.8892 14.4736 18.8892Z" fill="#AB4D85"/>
<path fill-rule="evenodd" clip-rule="evenodd" d="M14.4736 29.6743C16.6828 29.6743 18.4736 27.8835 18.4736 25.6743C18.4736 23.4652 16.6828 21.6743 14.4736 21.6743C12.2645 21.6743 10.4736 23.4652 10.4736 25.6743C10.4736 27.8835 12.2645 29.6743 14.4736 29.6743Z" fill="#576ED6"/>
<path fill-rule="evenodd" clip-rule="evenodd" d="M4.00001 29.6744C6.20914 29.6744 8 27.8836 8 25.6745C8 23.4653 6.20914 21.6744 4.00001 21.6744C1.79087 21.6744 0 23.4653 0 25.6745C0 27.8836 1.79087 29.6744 4.00001 29.6744Z" fill="#2D7EFF"/>
<path d="M48.8277 23.7843C46.3922 23.7843 44.494 21.9219 44.494 18.9135C44.494 16.0124 46.3922 14.15 48.8277 14.15C51.1556 14.15 53.0897 16.0482 53.0897 18.9135C53.0897 21.8861 51.1556 23.7843 48.8277 23.7843ZM44.2433 25.5751C45.5685 27.7598 48.2188 28.5836 50.0454 28.5836C54.7014 28.5836 58.5694 24.6439 58.5694 18.9851C58.5694 13.5054 54.9521 9.35079 49.9379 9.35079C47.9323 9.35079 45.8192 10.1745 44.6373 12.0011V2.61752H39.1934V28.1538H44.2433V25.5751Z" fill="#19213D"/>
<path d="M67.9037 9.78057H62.4956V28.1538H67.9754V20.74C67.9754 16.9078 69.8736 14.5082 73.0253 14.5082C73.5625 14.5082 73.9565 14.5798 74.243 14.6873V9.49405C73.9565 9.3866 73.5267 9.35079 73.0969 9.35079C70.6615 9.35079 68.8708 10.7118 67.9037 12.9681V9.78057Z" fill="#19213D"/>
<path d="M77.4387 28.1538H82.8826V9.78057H77.4387V28.1538ZM80.089 1.65051C78.4057 1.65051 77.0806 2.86823 77.0806 4.55155C77.0806 6.23486 78.4057 7.4884 80.089 7.4884C81.7724 7.4884 83.1333 6.23486 83.1333 4.55155C83.1333 2.86823 81.7724 1.65051 80.089 1.65051Z" fill="#19213D"/>
<path d="M92.0527 18.9493L85.7492 28.1538H91.8378L95.2761 22.6741L98.7144 28.1538H104.803L98.4995 18.9493L104.803 9.78057H98.6069L95.2761 15.2961L91.9453 9.78057H85.7492L92.0527 18.9493Z" fill="#19213D"/>
</svg>
