<svg width="45" height="35" viewBox="0 0 45 35" fill="none" xmlns="http://www.w3.org/2000/svg">
<path d="M24.8697 24.634C24.8697 30.1737 29.2308 34.299 34.8883 34.299C40.5459 34.299 44.7891 30.1737 44.7891 24.634C44.7891 20.0372 41.8424 16.6191 37.7171 15.3226L43.0211 0H35.0062L25.8126 20.3908C25.2233 21.9231 24.8697 23.1017 24.8697 24.634ZM0 24.634C0 30.1737 4.36104 34.299 10.0186 34.299C15.6762 34.299 19.9193 30.1737 19.9193 24.634C19.9193 20.0372 16.9727 16.6191 12.8474 15.3226L18.1514 0H10.1365L0.942928 20.3908C0.353598 21.9231 0 23.1017 0 24.634Z" fill="#0047FF"/>
</svg>
