<svg width="23" height="23" viewBox="0 0 23 23" fill="none" xmlns="http://www.w3.org/2000/svg">
<path d="M9.1123 18.1182C7.12394 20.1066 4.54446 21.3966 1.76082 21.7948L1.50164 21.8319C0.841661 21.9263 0.275857 21.3607 0.370068 20.7007L0.406947 20.4423C0.804495 17.6572 2.09479 15.0763 4.08411 13.0869L16.1086 1.06244C16.7756 0.39546 17.6802 0.0207519 18.6235 0.020752C19.5667 0.020752 20.4714 0.39546 21.1383 1.06244C21.8053 1.72943 22.18 2.63405 22.18 3.57731C22.18 4.52057 21.8053 5.4252 21.1383 6.09218L9.1123 18.1182Z" fill="#4A3AFF"/>
<path d="M21.1379 6.09217L16.1081 1.06244C16.7751 0.395453 17.6797 0.0207453 18.623 0.0207453C19.5663 0.0207453 20.4709 0.395453 21.1379 1.06244C21.8049 1.72942 22.1796 2.63405 22.1796 3.57731C22.1796 4.52056 21.8049 5.42519 21.1379 6.09217Z" fill="#9E95FF"/>
</svg>
