<svg width="226" height="86" viewBox="0 0 226 86" fill="none" xmlns="http://www.w3.org/2000/svg">
<rect width="226" height="86" fill="white"/>
<path d="M42.6828 48.9905C42.8841 48.7892 43.0099 48.7641 43.2363 48.9653C44.3179 50.047 45.3996 51.1538 46.4813 52.2103C46.7077 52.4116 46.7077 52.5625 46.4813 52.7638C45.3996 53.8203 44.3179 54.902 43.2614 55.9836C43.035 56.21 42.9092 56.2352 42.6828 56.0088C41.6012 54.9271 40.5195 53.8454 39.4378 52.7638C39.2366 52.5625 39.2366 52.4367 39.4378 52.2355C39.5887 52.1097 39.7145 51.9588 39.8403 51.833L42.6828 48.9905Z" fill="#2B3034"/>
<path d="M34.155 34.8282C31.5388 38.6267 31.564 43.5572 34.2556 47.3305C34.5575 47.7581 34.9348 48.1606 35.287 48.5631C36.5448 47.3053 37.7522 46.0979 38.9848 44.8652C36.8969 42.727 36.8969 39.2807 39.0352 37.1677C41.1733 35.0295 44.6448 35.0295 46.783 37.1677C48.8206 39.2053 48.9212 42.4252 47.0849 44.5634C47.0597 44.664 47.0346 44.7646 46.9591 44.8401C48.2168 46.0979 49.4243 47.3053 50.6569 48.5379C50.7827 48.4121 50.9085 48.2864 51.0091 48.1857C53.2982 45.8966 55.5622 43.6075 57.8765 41.3435C58.1532 41.0668 58.128 40.9158 57.8765 40.6392C55.4616 38.2745 53.097 35.8848 50.7072 33.5202C50.3047 33.1177 49.8519 32.7403 49.374 32.3882C44.5944 28.7909 37.5761 29.9229 34.155 34.8282Z" fill="#2E76B5"/>
<path d="M67.8732 43.2483V43.2158C67.8732 38.4228 71.5008 34.5042 76.6832 34.5042C79.8574 34.5042 81.7684 35.5729 83.3231 37.095L80.9587 39.8154C79.6631 38.6495 78.3351 37.9047 76.6508 37.9047C73.8005 37.9047 71.7599 40.2688 71.7599 43.1511V43.1834C71.7599 46.0657 73.7681 48.4946 76.6508 48.4946C78.5942 48.4946 79.7602 47.7174 81.0882 46.5192L83.4527 48.9156C81.7036 50.7616 79.7926 51.9275 76.5212 51.9275C71.5656 51.8951 67.8732 48.0736 67.8732 43.2483Z" fill="#2B3034"/>
<path d="M88.3445 34.7632H101.074V38.0665H92.037V41.4994H100.005V44.8027H92.037V48.3327H101.171V51.6359H88.3121V34.7632H88.3445Z" fill="#2B3034"/>
<path d="M106.386 34.7632H114.128C116.265 34.7632 117.949 35.3786 119.051 36.4797C119.99 37.4188 120.508 38.7466 120.508 40.3335V40.3659C120.508 43.0863 119.051 44.8027 116.881 45.5799L120.994 51.6036H116.654L113.026 46.1953H110.111V51.6036H106.386V34.7632ZM113.868 42.9567C115.682 42.9567 116.719 41.9851 116.719 40.5602V40.5278C116.719 38.9409 115.617 38.1313 113.804 38.1313H110.111V42.9891H113.868V42.9567Z" fill="#2B3034"/>
<path d="M129.674 38.1637H124.556V34.7632H138.549V38.1637H133.431V51.6036H129.674V38.1637Z" fill="#2B3034"/>
<path d="M143.47 34.7632H147.162V51.6359H143.437V34.7632H143.47Z" fill="#2B3034"/>
<path d="M153.317 34.7632H166.176V38.1313H157.042V41.7261H165.075V45.0941H157.042V51.6359H153.317V34.7632Z" fill="#2B3034"/>
<path d="M171.229 34.7632H174.954V51.6359H171.229V34.7632Z" fill="#2E76B5"/>
<path d="M181.076 34.7632H187.651C192.963 34.7632 196.623 38.3904 196.623 43.151V43.1834C196.623 47.944 192.963 51.6036 187.651 51.6036H181.076V34.7632ZM184.801 38.0989V48.2679H187.683C190.728 48.2679 192.769 46.2276 192.769 43.2482V43.2158C192.769 40.2364 190.728 38.1313 187.683 38.1313H184.801V38.0989Z" fill="#2E76B5"/>
</svg>
