<svg width="226" height="86" viewBox="0 0 226 86" fill="none" xmlns="http://www.w3.org/2000/svg">
<rect width="226" height="86" fill="white"/>
<path d="M88.42 34.5221H91.5913V48.8685C91.5913 50.2981 91.2389 51.5566 90.5342 52.6438C89.8295 53.7311 88.853 54.5668 87.6046 55.1507C86.3763 55.7547 84.987 56.0567 83.4366 56.0567C81.6848 56.0567 80.1143 55.7245 78.7249 55.0601C77.3557 54.3956 76.3792 53.5097 75.7953 52.4022L78.5135 50.8317C78.8356 51.476 79.4296 52.0196 80.2954 52.4626C81.1814 52.9056 82.2587 53.127 83.5272 53.127C84.9568 53.127 86.1247 52.7345 87.0307 51.9491C87.957 51.1639 88.42 50.137 88.42 48.8685V47.8114C87.7153 48.496 86.8999 49.0396 85.9736 49.4423C85.0676 49.8249 84.1211 50.0162 83.1345 50.0162C81.6244 50.0162 80.2954 49.6738 79.1477 48.9893C78.0001 48.2845 77.104 47.3382 76.4597 46.1502C75.8355 44.9421 75.5234 43.593 75.5234 42.103C75.5234 40.613 75.8355 39.264 76.4597 38.0559C77.104 36.8477 78.0001 35.9014 79.1477 35.2168C80.2954 34.5121 81.6244 34.1597 83.1345 34.1597C84.1211 34.1597 85.0676 34.361 85.9736 34.7637C86.8999 35.1464 87.7153 35.69 88.42 36.3947V34.5221ZM83.5272 46.9657C84.4333 46.9657 85.2588 46.7543 86.0038 46.3314C86.7488 45.9086 87.3327 45.3247 87.7556 44.5796C88.1986 43.8347 88.42 42.999 88.42 42.0729C88.42 41.1466 88.1986 40.3211 87.7556 39.5962C87.3327 38.8512 86.7488 38.2773 86.0038 37.8747C85.2588 37.4518 84.4333 37.2404 83.5272 37.2404C82.6211 37.2404 81.7955 37.4518 81.0505 37.8747C80.3257 38.2773 79.7518 38.8512 79.329 39.5962C78.9061 40.3412 78.6947 41.1768 78.6947 42.103C78.6947 43.0292 78.9061 43.8649 79.329 44.6099C79.7518 45.3548 80.3257 45.9388 81.0505 46.3616C81.7955 46.7643 82.6211 46.9657 83.5272 46.9657Z" fill="#16131C"/>
<path d="M107.209 34.5221H110.38V55.6641H107.209V47.7812C106.504 48.4859 105.689 49.0396 104.763 49.4423C103.856 49.8249 102.91 50.0162 101.924 50.0162C100.413 50.0162 99.0845 49.6738 97.9368 48.9893C96.7891 48.2845 95.8931 47.3281 95.2488 46.12C94.6245 44.9119 94.3125 43.5628 94.3125 42.0729C94.3125 40.5828 94.6245 39.2338 95.2488 38.0256C95.8931 36.8176 96.7891 35.8711 97.9368 35.1866C99.0845 34.502 100.413 34.1597 101.924 34.1597C102.91 34.1597 103.856 34.361 104.763 34.7637C105.689 35.1464 106.504 35.69 107.209 36.3947V34.5221ZM102.286 46.9355C103.192 46.9355 104.018 46.7341 104.763 46.3314C105.528 45.9086 106.122 45.3348 106.545 44.6099C106.988 43.8649 107.209 43.0292 107.209 42.103C107.209 41.1768 106.988 40.3412 106.545 39.5962C106.122 38.8311 105.528 38.237 104.763 37.8142C104.018 37.3914 103.192 37.18 102.286 37.18C101.38 37.18 100.554 37.3914 99.8094 37.8142C99.0845 38.237 98.5107 38.821 98.0879 39.566C97.6852 40.311 97.4838 41.1466 97.4838 42.0729C97.4838 42.999 97.6852 43.8347 98.0879 44.5796C98.5107 45.3045 99.0845 45.8784 99.8094 46.3013C100.554 46.7241 101.38 46.9355 102.286 46.9355Z" fill="#16131C"/>
<path d="M123.675 34.5225H126.847V49.6239H123.675V48.1138C123.132 48.6776 122.497 49.1407 121.773 49.5031C121.068 49.8455 120.303 50.0166 119.477 50.0166C118.591 50.0166 117.685 49.8353 116.759 49.4729C115.853 49.0903 115.067 48.4158 114.403 47.4494C113.738 46.4828 113.406 45.1841 113.406 43.5532V34.5225H116.578V43.5532C116.578 44.8419 116.93 45.768 117.635 46.3318C118.36 46.8956 119.205 47.1775 120.172 47.1775C121.118 47.1775 121.934 46.8453 122.619 46.1809C123.323 45.5163 123.675 44.4391 123.675 42.9491V34.5225Z" fill="#16131C"/>
<path d="M137.351 34.1289C138.82 34.1289 140.13 34.4913 141.277 35.2162C142.425 35.921 143.32 36.8874 143.965 38.1157C144.61 39.3238 144.931 40.6527 144.931 42.1025C144.931 42.344 144.891 42.7266 144.811 43.2502H132.609C132.871 44.4582 133.434 45.4247 134.3 46.1496C135.186 46.8745 136.303 47.237 137.653 47.237C138.479 47.237 139.263 47.0557 140.008 46.6932C140.774 46.3308 141.338 45.8577 141.7 45.2737L144.177 46.7235C143.492 47.7705 142.586 48.586 141.458 49.1699C140.331 49.7337 139.042 50.0156 137.592 50.0156C135.981 50.0156 134.552 49.6733 133.304 48.9887C132.075 48.3041 131.119 47.3578 130.434 46.1496C129.77 44.9415 129.438 43.5824 129.438 42.0723C129.438 40.5822 129.77 39.2332 130.434 38.025C131.119 36.817 132.055 35.8705 133.243 35.186C134.452 34.4812 135.82 34.1289 137.351 34.1289ZM141.911 40.7433C141.751 39.5553 141.257 38.6191 140.431 37.9344C139.626 37.2498 138.599 36.9076 137.351 36.9076C136.485 36.9076 135.69 37.0887 134.965 37.4512C134.24 37.7935 133.666 38.2667 133.243 38.8707C132.821 39.4546 132.599 40.0789 132.579 40.7433H141.911Z" fill="#16131C"/>
<path d="M157.855 34.5225H161.027V49.6239H157.855V48.1138C157.312 48.6776 156.677 49.1407 155.952 49.5031C155.248 49.8455 154.483 50.0166 153.657 50.0166C152.771 50.0166 151.865 49.8353 150.939 49.4729C150.033 49.0903 149.248 48.4158 148.583 47.4494C147.919 46.4828 147.586 45.1841 147.586 43.5532V34.5225H150.758V43.5532C150.758 44.8419 151.109 45.768 151.814 46.3318C152.54 46.8956 153.385 47.1775 154.351 47.1775C155.298 47.1775 156.114 46.8453 156.798 46.1809C157.503 45.5163 157.855 44.4391 157.855 42.9491V34.5225Z" fill="#16131C"/>
<path d="M171.538 34.1289C173.008 34.1289 174.317 34.4913 175.465 35.2162C176.613 35.921 177.509 36.8874 178.153 38.1157C178.797 39.3238 179.119 40.6527 179.119 42.1025C179.119 42.344 179.079 42.7266 178.999 43.2502H166.797C167.058 44.4582 167.622 45.4247 168.488 46.1496C169.374 46.8745 170.492 47.237 171.84 47.237C172.666 47.237 173.451 47.0557 174.196 46.6932C174.962 46.3308 175.525 45.8577 175.888 45.2737L178.364 46.7235C177.679 47.7705 176.773 48.586 175.646 49.1699C174.519 49.7337 173.23 50.0156 171.78 50.0156C170.169 50.0156 168.74 49.6733 167.491 48.9887C166.263 48.3041 165.307 47.3578 164.622 46.1496C163.958 44.9415 163.625 43.5824 163.625 42.0723C163.625 40.5822 163.958 39.2332 164.622 38.025C165.307 36.817 166.243 35.8705 167.431 35.186C168.639 34.4812 170.009 34.1289 171.538 34.1289ZM176.1 40.7433C175.938 39.5553 175.445 38.6191 174.619 37.9344C173.814 37.2498 172.786 36.9076 171.538 36.9076C170.672 36.9076 169.877 37.0887 169.153 37.4512C168.428 37.7935 167.853 38.2667 167.431 38.8707C167.008 39.4546 166.787 40.0789 166.767 40.7433H176.1Z" fill="#16131C"/>
<path d="M184.293 38.6896C184.293 39.1929 184.545 39.5654 185.048 39.807C185.571 40.0286 186.407 40.2802 187.555 40.5621C188.723 40.8238 189.689 41.1057 190.454 41.4077C191.219 41.6896 191.874 42.1427 192.417 42.7669C192.982 43.3911 193.263 44.2368 193.263 45.3039C193.263 46.2704 192.982 47.1161 192.417 47.841C191.854 48.5457 191.089 49.0893 190.122 49.472C189.176 49.8343 188.129 50.0156 186.981 50.0156C185.431 50.0156 184.102 49.7136 182.994 49.1095C181.887 48.4853 181.081 47.6195 180.578 46.5121L183.175 45.1529C183.477 45.918 183.95 46.4919 184.595 46.8745C185.26 47.237 186.055 47.4181 186.981 47.4181C187.847 47.4181 188.592 47.237 189.216 46.8745C189.861 46.5121 190.183 45.9986 190.183 45.3342C190.183 44.7503 189.891 44.3274 189.307 44.0657C188.743 43.7838 187.847 43.4918 186.619 43.1897C185.431 42.8877 184.475 42.6058 183.75 42.344C183.045 42.0622 182.431 41.6393 181.907 41.0755C181.383 40.4916 181.121 39.7265 181.121 38.7801C181.121 37.8539 181.383 37.0384 181.907 36.3337C182.431 35.6289 183.135 35.0853 184.021 34.7028C184.907 34.3201 185.894 34.1289 186.981 34.1289C188.27 34.1289 189.418 34.4108 190.424 34.9745C191.451 35.5182 192.237 36.2834 192.78 37.27L190.183 38.5687C189.619 37.3405 188.552 36.7263 186.981 36.7263C186.156 36.7263 185.501 36.9076 185.018 37.27C184.535 37.6123 184.293 38.0855 184.293 38.6896Z" fill="#16131C"/>
<path d="M33.052 46.7654C31.6493 45.3628 31.6493 43.0887 33.052 41.686L48.6861 26.052C50.0887 24.6493 52.3628 24.6493 53.7655 26.052C55.1681 27.4546 55.1681 29.7287 53.7655 31.1313L38.1313 46.7654C36.7287 48.168 34.4546 48.168 33.052 46.7654Z" fill="#8031FF"/>
<path d="M46.6272 46.7533C45.2337 45.3598 45.2337 43.1003 46.6272 41.7067L55.4817 32.8523C56.8753 31.4587 59.1348 31.4587 60.5283 32.8523C61.9219 34.2458 61.9219 36.5052 60.5283 37.8987L51.6737 46.7533C50.2802 48.1469 48.0208 48.1469 46.6272 46.7533Z" fill="#4285F4"/>
<path fill-rule="evenodd" clip-rule="evenodd" d="M46.7866 60.4821C46.6659 60.3891 46.5497 60.2871 46.439 60.1765L39.8364 53.5738C38.44 52.1773 38.44 49.9133 39.8364 48.5168C41.2329 47.1203 43.4969 47.1203 44.8934 48.5168L49.0966 52.7201L62.2632 39.5535C63.6443 38.1723 65.8836 38.1723 67.2648 39.5535C68.646 40.9346 68.646 43.174 67.2648 44.5551L51.5529 60.267C50.2477 61.5722 48.1761 61.644 46.7866 60.4821Z" fill="#00D9AD"/>
</svg>
