<svg width="123" height="31" viewBox="0 0 123 31" fill="none" xmlns="http://www.w3.org/2000/svg">
<g clip-path="url(#clip0_4790_48225)">
<path d="M54.1213 4.61755C53.1072 3.60037 51.9034 2.79349 50.5784 2.243C49.2534 1.69251 47.8332 1.40918 46.3991 1.40918H30.4692V30.6196H41.3902V12.3631H44.8911C45.8574 12.3631 46.7841 12.7477 47.4678 13.4325L51.2399 17.2135C51.924 17.8977 52.3093 18.8264 52.3112 19.7954V30.6196H63.2321V18.283C63.2302 15.3773 62.0779 12.5912 60.0284 10.5375L54.1213 4.61755Z" fill="#868DA6"/>
<path d="M110.556 1.40918V12.2334C110.555 13.2023 110.169 14.131 109.485 14.8152L105.71 18.5962C105.372 18.9353 104.971 19.2042 104.529 19.3878C104.088 19.5713 103.614 19.6657 103.136 19.6657H97.8902C99.0267 17.9014 99.6328 15.8461 99.6352 13.7457V1.40918H88.7142V12.2334C88.7126 13.2023 88.3269 14.131 87.6429 14.8152L83.868 18.5962C83.5304 18.9353 83.1289 19.2042 82.6874 19.3878C82.2458 19.5713 81.7728 19.6657 81.2942 19.6657H77.7935V1.40918H66.8726V30.6196H82.8023C85.6996 30.6196 88.4781 29.4656 90.5269 27.4112L94.1751 23.7541V30.6196H104.644C107.542 30.6196 110.32 29.4656 112.369 27.4112L118.274 21.4913C120.323 19.4375 121.476 16.6515 121.477 13.7457V1.40918H110.556Z" fill="#868DA6"/>
<path d="M1.34717 12.3631H8.62783V30.6196H19.5487V12.3631H26.8294V1.40918H1.34717V12.3631Z" fill="#868DA6"/>
</g>
<defs>
<clipPath id="clip0_4790_48225">
<rect width="122" height="30" fill="white" transform="translate(0.318359 0.8125)"/>
</clipPath>
</defs>
</svg>
