<svg width="207" height="31" viewBox="0 0 207 31" fill="none" xmlns="http://www.w3.org/2000/svg">
<g clip-path="url(#clip0_4790_48229)">
<path d="M78.0676 12.9181V25.8869H73.3444V12.9181H68.6211V8.7583H82.7908V12.9181H78.0676Z" fill="#868DA6"/>
<path d="M93.8128 20.7485H86.3037C86.4249 22.2167 87.2726 22.8284 88.4841 22.8284C89.5733 22.8284 90.5428 22.5838 91.7533 21.972L93.4495 24.7859C91.8747 25.7647 90.2999 26.2542 88.2413 26.2542C84.366 26.2542 82.3071 23.5625 82.3071 19.525C82.3071 15.1205 84.7294 12.7959 88.1208 12.7959C91.6328 12.7959 93.8128 15.1205 93.8128 19.892C93.8128 20.2591 93.8128 20.5038 93.8128 20.7485ZM87.9994 15.977C87.0304 15.977 86.4249 16.7111 86.3037 17.9345H89.9366C89.6947 16.7111 89.3313 15.977 87.9994 15.977Z" fill="#868DA6"/>
<path d="M101.926 26.1318C98.1713 26.1318 95.9912 23.6848 95.9912 19.4027C95.9912 15.4875 97.9293 12.7959 102.047 12.7959C104.469 12.7959 105.801 13.8971 106.891 15.7323L103.863 18.0568C103.258 16.9558 102.895 16.344 101.926 16.344C100.836 16.344 100.23 17.4451 100.23 19.525C100.23 21.605 100.836 22.5838 102.047 22.5838C102.895 22.5838 103.5 22.0943 104.227 20.8708L107.012 23.0731C105.559 25.2754 104.106 26.1318 101.926 26.1318Z" fill="#868DA6"/>
<path d="M116.702 25.8874V18.5465C116.702 16.8336 116.096 16.4666 115.248 16.4666C114.28 16.4666 113.795 16.956 113.795 18.5465V25.8874H109.436V9.85985L113.795 8.14697V14.0196C114.643 13.4079 115.491 12.9185 116.944 12.9185C119.73 12.9185 121.062 14.7537 121.062 18.1795V25.8874H116.702Z" fill="#868DA6"/>
<path d="M131.598 26.1317C126.511 26.1317 123.847 22.3389 123.847 17.3227C123.847 11.817 126.996 8.51367 131.598 8.51367C135.716 8.51367 137.411 10.3489 138.622 13.5299L134.384 15.2428C133.778 13.6522 133.172 12.6735 131.598 12.6735C129.66 12.6735 128.812 14.631 128.812 17.3227C128.812 19.892 129.66 21.9718 131.719 21.9718C133.172 21.9718 133.778 21.1154 134.747 19.5249L138.744 21.6049C137.532 23.9294 135.594 26.1317 131.598 26.1317Z" fill="#868DA6"/>
<path d="M149.402 17.9345C148.796 17.3228 148.191 16.8334 147.343 16.8334C146.253 16.8334 145.647 17.3228 145.647 18.9133V25.8871H141.287V13.0406H145.647V14.0194C146.374 13.2853 147.222 12.7959 148.312 12.7959C149.281 12.7959 149.886 13.0406 150.371 13.2853L149.402 17.9345Z" fill="#868DA6"/>
<path d="M159.697 25.887V25.0306C158.97 25.6423 158.002 26.1316 156.548 26.1316C153.763 26.1316 152.43 24.2964 152.43 20.8707V13.0405H156.79V20.3814C156.79 22.0942 157.396 22.4612 158.244 22.4612C159.092 22.4612 159.697 21.9719 159.697 20.3814V13.0405H164.057V25.887H159.697Z" fill="#868DA6"/>
<path d="M174.592 25.8871V18.5463C174.592 16.8334 173.987 16.4663 173.139 16.4663C172.17 16.4663 171.685 16.9558 171.685 18.5463V25.8871H167.325V13.0406H171.685V13.8971C172.533 13.2853 173.381 12.7959 174.834 12.7959C177.62 12.7959 178.952 14.6311 178.952 18.0568V25.8871H174.592Z" fill="#868DA6"/>
<path d="M187.429 26.1318C183.674 26.1318 181.495 23.6848 181.495 19.4027C181.495 15.4875 183.432 12.7959 187.55 12.7959C189.972 12.7959 191.304 13.8971 192.394 15.7323L189.367 18.0568C188.761 16.9558 188.397 16.344 187.429 16.344C186.339 16.344 185.733 17.4451 185.733 19.525C185.733 21.605 186.339 22.5838 187.55 22.5838C188.397 22.5838 189.003 22.0943 189.729 20.8708L192.515 23.0731C191.062 25.2754 189.73 26.1318 187.429 26.1318Z" fill="#868DA6"/>
<path d="M202.326 25.8874V18.5465C202.326 16.8336 201.72 16.4666 200.872 16.4666C199.904 16.4666 199.419 16.956 199.419 18.5465V25.8874H195.06V9.85985L199.419 8.14697V14.0196C200.267 13.4079 201.115 12.9185 202.568 12.9185C205.354 12.9185 206.686 14.7537 206.686 18.1795V25.8874H202.326Z" fill="#868DA6"/>
<path d="M0.55957 1.41748V11.2052H10.2483V30.7809H19.9369V11.2052H29.6256V1.41748H0.55957Z" fill="#868DA6"/>
<path d="M39.3132 20.9933V11.2056H29.6245V30.7811H58.6905V20.9933H39.3132Z" fill="#868DA6"/>
<path d="M58.6917 1.41748H39.3145V11.2053H58.6917V1.41748Z" fill="#868DA6"/>
</g>
<defs>
<clipPath id="clip0_4790_48229">
<rect width="207" height="30" fill="white" transform="translate(0 0.873047)"/>
</clipPath>
</defs>
</svg>
