<svg width="204" height="30" viewBox="0 0 204 30" fill="none" xmlns="http://www.w3.org/2000/svg">
<g clip-path="url(#clip0_4790_48257)">
<mask id="mask0_4790_48257" style="mask-type:luminance" maskUnits="userSpaceOnUse" x="0" y="0" width="204" height="30">
<path d="M203.322 0.748047H0.322266V29.748H203.322V0.748047Z" fill="white"/>
</mask>
<g mask="url(#mask0_4790_48257)">
<path d="M16.1599 3.6628C16.1599 1.41552 14.0578 0.702974 12.2791 0.757785V0.977031C13.3571 1.08665 14.1656 1.52515 14.1656 2.2377C14.1656 2.731 13.7883 3.38874 12.7642 3.38874C11.9018 3.38874 10.5543 2.89544 9.20683 2.45694C7.75152 1.96364 6.40402 1.47033 5.27212 1.47033C3.06222 1.47033 1.33742 3.1695 1.33742 5.25233C1.33742 6.95148 2.63102 7.4996 3.11612 7.71885L3.17002 7.60922C2.84662 7.38998 2.63102 7.11592 2.63102 6.40337C2.63102 5.80045 3.06222 4.97827 4.19412 4.97827C5.21822 4.97827 6.56572 5.47158 8.39832 5.96488C9.96143 6.40337 11.6323 6.84186 12.5486 6.95148V10.6239L10.8238 12.1038L12.5486 13.6385V18.6811C11.6323 19.2292 10.6082 19.3937 9.69193 19.3937C8.02101 19.3937 6.51182 18.9004 5.27212 17.5301L9.96143 15.228V7.17073L4.24802 9.8017C4.84092 8.26697 5.97282 7.11592 7.21252 6.34856L7.15862 6.23894C3.76292 7.17073 0.636719 10.3498 0.636719 14.2963C0.636719 19.01 4.35581 22.4632 8.61391 22.4632C13.2493 22.4632 15.9443 18.7907 15.8904 14.8992H15.7826C15.0819 16.3791 14.0039 17.8042 12.7103 18.5716V13.6385L14.5429 12.1586L12.7103 10.6786V7.0063C14.4351 6.95148 16.1599 5.80045 16.1599 3.6628ZM6.51182 16.5983L5.16432 17.3109C4.35582 16.2147 3.81682 14.7347 3.81682 12.7615C3.81682 11.9394 3.92462 10.8431 4.19412 10.0757L6.56572 8.97951L6.51182 16.5983ZM28.0179 10.1305L27.1016 10.8431L24.4066 8.37659L21.2265 10.8431V1.3059L16.9145 4.32053C17.3996 4.48497 17.9925 4.75902 17.9925 5.91007V19.1744L16.5372 20.3255L16.6989 20.49L17.4535 19.9419L19.9868 22.2987L23.4364 19.9966L23.2747 19.7773L22.4123 20.3803L21.2265 19.1744V11.172L22.035 10.5691L23.9215 12.2134V19.1744C23.9215 23.5594 22.9513 24.4912 21.0109 25.2037V25.3134C24.2449 25.4778 27.1555 24.3267 27.1555 18.6811V11.1172L28.1257 10.295L28.0179 10.1305ZM33.7852 22.2439L38.744 18.1879L38.5823 17.9686L35.9951 20.0514L32.9767 17.6945V16.2147L38.1511 12.4875L35.5639 8.37659L29.7966 11.6105V19.2292L28.6647 20.1063L28.8264 20.2707L29.9044 19.3937L33.7852 22.2439ZM32.9767 15.8857V10.1305L35.4561 14.1318L32.9767 15.8857ZM59.3338 2.56657C59.3338 2.18288 59.226 1.90883 59.1182 1.47033H59.0104C58.6331 2.45694 58.2558 2.95025 57.1778 2.95025C56.2076 2.95025 55.453 2.34732 55.0218 1.90883C55.0218 1.96364 51.7339 5.74564 51.7339 5.74564L51.8956 5.91007L52.8119 4.81384C53.5126 5.36195 54.1594 6.01969 55.7225 6.01969V15.7213L49.0928 3.93685C48.5538 3.05987 47.6914 1.74439 46.1283 1.74439C44.3496 1.74439 42.9482 3.33393 43.1638 5.96488H43.2716C43.4333 5.30714 43.8106 4.48497 44.5652 4.48497C45.212 4.48497 45.6971 5.08789 46.0205 5.63601V9.418C43.9723 9.418 42.7865 10.4046 42.7865 12.0489C42.7865 12.7615 43.2716 14.2414 44.673 14.4607V14.351C44.4574 14.1318 44.2957 13.9673 44.2957 13.5837C44.2957 12.926 44.7808 12.597 45.5893 12.597C45.751 12.597 45.9127 12.6519 46.0205 12.6519V17.5849C43.595 17.6397 41.7085 18.9552 41.7085 21.3121C41.7085 23.5046 43.595 24.546 45.5354 24.4363V24.3267C44.2957 24.1623 43.7028 23.5594 43.7028 22.6276C43.7028 21.641 44.4035 21.0929 45.3198 21.0929C46.2361 21.0929 46.8829 21.6957 47.4758 22.3535L50.7637 18.6263L50.602 18.4619L49.7396 19.4485C48.4999 18.2975 47.6914 17.8042 46.2361 17.5849V5.96488L55.453 22.2987H55.9381V6.01969C57.7707 5.91007 59.3338 4.59459 59.3338 2.56657ZM62.46 22.2439L67.4188 18.1879L67.2571 17.9686L64.6699 20.0514L61.6515 17.6397V16.1598L66.8259 12.4326L64.2387 8.32178L58.4714 11.5557V19.1744L57.3395 20.0514L57.5012 20.2159L58.5792 19.3389L62.46 22.2439ZM61.7054 15.8857V10.1305L64.1848 14.1318L61.7054 15.8857ZM85.098 9.69203L84.3434 10.295L82.1874 8.4314L79.6541 10.7335L80.6782 11.7201V20.3803L78.091 18.5716V11.5557L79.0073 10.8979L76.3662 8.37659L73.8868 10.6786L74.9109 11.6653V20.0514L74.7492 20.161L72.3237 18.3523V11.5008C72.3237 9.91128 71.5152 9.418 70.545 8.81508C69.6826 8.26697 69.2514 7.77366 69.2514 7.0063C69.2514 6.12932 70.006 5.74564 70.2755 5.63601C69.4131 5.5812 66.9876 6.51299 66.9337 8.76027C66.8798 9.91128 67.4727 10.4046 68.0117 10.9527C68.6046 11.5008 69.1436 12.0489 69.1436 12.9807V19.7226L67.9578 20.6544L68.1195 20.8188L69.2514 19.9419L72.162 22.3535L74.9648 20.3803L78.0371 22.3535L84.02 18.736V10.8979L85.3675 9.85654L85.098 9.69203ZM105.148 3.11468L104.017 4.1561L101.484 1.90883L98.0339 4.75903V2.12807H97.8186V21.1476C97.4415 21.0929 96.633 20.8736 95.7702 20.7092V4.81384C95.7702 3.66279 94.9617 2.07326 92.9134 2.07326C90.8116 2.07326 89.5717 3.82723 89.5717 5.36195H89.6794C89.787 4.6494 90.2726 4.04647 90.9192 4.04647C91.6201 4.04647 92.2125 4.48497 92.2125 6.01969V10.5691C90.2726 10.6786 89.087 11.8845 89.087 13.2C89.087 13.9673 89.5717 15.3376 91.0269 15.3925V15.2829C90.5421 15.0636 90.4345 14.7895 90.4345 14.5155C90.4345 13.8577 91.0811 13.6385 91.943 13.6385H92.1591V20.9284C90.4879 21.5313 89.7336 22.6276 89.7336 24.0527C89.7336 25.971 91.243 27.5058 93.5066 27.5058C95.0694 27.5058 96.2016 27.2318 97.6567 26.9029C98.8424 26.6288 100.082 26.3547 100.783 26.3547C101.645 26.3547 102.023 26.7384 102.023 27.3962C102.023 28.2184 101.699 28.602 101.268 28.7665V28.8761C103.154 28.4924 104.232 27.3962 104.232 25.697C104.232 23.9431 102.562 22.8469 100.729 22.8469C99.7585 22.8469 98.0339 23.1757 96.633 23.5046C95.0694 23.8882 93.6685 24.0527 93.1829 24.0527C92.3744 24.0527 91.404 23.669 91.404 22.6276C91.404 21.641 92.2125 20.8736 94.1532 20.8736C95.2312 20.8736 96.255 21.0381 97.5491 21.3669C98.95 21.6957 99.867 22.0795 101.106 22.0795C102.777 22.0795 104.125 21.4766 104.125 19.01V4.43015L105.365 3.27912L105.148 3.11468ZM100.459 10.7335C100.136 11.0623 99.8127 11.3364 99.2195 11.3364C98.5729 11.3364 98.25 11.0076 97.9805 10.7335V5.03308L98.789 4.37534L100.459 5.80045V10.7335ZM100.459 13.4741C100.19 13.2 99.8127 12.926 99.2195 12.926C98.6271 12.926 98.1957 13.2548 97.9805 13.4741V11.0623C98.25 11.2816 98.6271 11.6105 99.2195 11.6105C99.8127 11.6105 100.19 11.3364 100.459 11.0623V13.4741ZM100.459 19.1744C100.459 20.1063 99.9746 21.1476 98.789 21.1476C98.5729 21.1476 98.1415 21.0929 97.9805 21.0929V13.7481C98.25 13.4741 98.6271 13.1452 99.2195 13.1452C99.8127 13.1452 100.136 13.4192 100.459 13.7481V19.1744ZM110.161 22.2439L115.713 18.736V11.0623L112.102 8.37659L106.55 11.6105V19.2292L105.472 20.1063L105.58 20.2707L106.496 19.5033L110.161 22.2439ZM109.784 18.2975V10.0757L112.587 12.1586V20.3255L109.784 18.2975ZM126.331 8.54102C125.9 8.86989 125.523 9.03432 125.091 9.03432C124.661 9.03432 124.122 8.76027 123.852 8.37659C123.852 8.4314 121.804 10.6239 121.804 10.6239L119.756 8.37659L116.36 10.7335L116.467 10.9527L117.384 10.3498L118.623 11.7201V19.1744L117.168 20.3255L117.33 20.49L118.084 19.9419L120.834 22.2987L124.337 19.9419L124.23 19.7773L123.313 20.3255L121.912 19.01V10.8431C122.505 11.5008 123.152 12.0489 123.906 12.0489C125.2 12.0489 126.169 10.3498 126.331 8.54102ZM139.483 19.5582L138.459 20.2159L132.692 11.5008L133.015 11.0623C133.662 11.446 134.201 11.9942 135.387 11.9942C136.572 11.9942 138.082 10.7335 138.244 8.37659C137.92 8.81508 137.327 9.30838 136.357 9.30838C135.656 9.30838 134.955 8.81508 134.524 8.37659L130.59 14.2414L135.764 22.2987L139.537 19.7773L139.483 19.5582ZM132.476 19.7773L131.614 20.3803L130.428 19.1744V1.3059L126.116 4.32053C126.601 4.48497 127.194 4.75902 127.194 5.91007V19.1744L125.739 20.3255L125.9 20.49L126.655 19.9419L129.188 22.2987L132.637 19.9966L132.476 19.7773ZM157.755 3.6628C157.755 1.41552 155.653 0.702974 153.875 0.757785V0.977031C154.953 1.08665 155.761 1.52515 155.761 2.2377C155.761 2.731 155.384 3.38874 154.359 3.38874C153.497 3.38874 152.15 2.89544 150.802 2.45694C149.346 1.96364 147.999 1.47033 146.868 1.47033C144.657 1.47033 142.933 3.1695 142.933 5.25233C142.933 6.95148 144.226 7.4996 144.712 7.71885L144.765 7.60922C144.442 7.38998 144.226 7.11592 144.226 6.40337C144.226 5.80045 144.657 4.97827 145.79 4.97827C146.813 4.97827 148.161 5.47158 149.994 5.96488C151.557 6.40337 153.228 6.84186 154.144 6.95148V10.6239L152.419 12.1038L154.144 13.6385V18.6811C153.228 19.2292 152.203 19.3937 151.287 19.3937C149.616 19.3937 148.107 18.9004 146.868 17.5301L151.557 15.228V7.17073L145.79 9.74686C146.382 8.21215 147.514 7.06111 148.754 6.29375L148.7 6.18413C145.304 7.11592 142.178 10.295 142.178 14.2414C142.178 18.9552 145.897 22.4084 150.155 22.4084C154.791 22.4084 157.486 18.736 157.431 14.8444H157.324C156.623 16.3242 155.545 17.7494 154.252 18.5167V13.5837L156.084 12.1038L154.252 10.6239V6.95148C156.031 6.95148 157.755 5.80045 157.755 3.6628ZM148.053 16.5983L146.706 17.3109C145.897 16.2147 145.358 14.7347 145.358 12.7615C145.358 11.9394 145.466 10.8431 145.735 10.0757L148.107 8.97951L148.053 16.5983ZM161.259 2.78581L158.887 4.81384L160.935 7.17073L163.307 5.14271L161.259 2.78581ZM164.924 19.7773L164.061 20.3803L162.876 19.1744V11.1172L163.899 10.295L163.738 10.1305L162.876 10.7883L160.882 8.37659L157.593 10.6786L157.701 10.8979L158.509 10.3498L159.587 11.7201V19.1744L158.132 20.3255L158.294 20.49L159.048 19.9419L161.582 22.2987L165.032 19.9966L164.924 19.7773ZM183.25 19.6678L182.442 20.2159L181.147 18.9552V11.1172L182.172 10.295L182.01 10.1305L181.094 10.8431L178.399 8.37659L175.327 10.7883L172.632 8.37659L169.613 10.7883L167.565 8.37659L164.277 10.6786L164.385 10.8979L165.194 10.3498L166.379 11.7201V19.1197L165.463 20.0514L168.05 22.2987L170.584 19.9966L169.559 19.01V11.0623L170.26 10.5691L172.146 12.2134V19.1197L171.284 20.0514L173.925 22.2987L176.405 19.9966L175.38 19.01V11.0623L176.027 10.5142L177.913 12.2134V19.01L177.159 19.8322L179.8 22.2987L183.303 19.887L183.25 19.6678ZM192.79 18.0234L190.203 20.1063L187.185 17.6945V16.2147L192.359 12.4875L189.771 8.37659L184.004 11.6105V19.3937L187.939 22.2987L192.898 18.2426L192.79 18.0234ZM187.185 15.8857V10.1305L189.664 14.1318L187.185 15.8857ZM202.762 14.7895L200.551 13.0904C202.007 11.7749 202.546 10.1305 202.546 8.9247C202.546 8.76027 202.492 8.4314 202.492 8.15734H202.385C202.168 8.76027 201.576 9.30838 200.713 9.30838C199.851 9.30838 199.312 8.81508 198.773 8.21215L193.706 11.0623V15.228L195.647 16.7628C193.706 18.5167 193.329 19.6129 193.329 20.5995C193.329 21.641 193.922 22.4632 194.892 22.8469L195 22.6824C194.731 22.4632 194.515 22.2987 194.515 21.8054C194.515 21.4217 194.892 20.8188 195.755 20.8188C196.887 20.8188 197.534 21.5862 197.911 22.0247C197.911 21.9698 202.762 19.01 202.762 19.01V14.7895ZM201.629 11.3913C200.875 12.7615 199.204 14.1318 198.18 14.8992L196.94 13.8577V9.8017C197.426 10.8979 198.45 11.8297 199.743 11.8297C200.551 11.8297 201.037 11.6653 201.629 11.3913ZM199.528 20.49C198.934 19.1745 197.749 18.2426 196.348 18.2426C196.024 18.2426 195 18.1879 194.138 18.7907C194.677 17.9138 196.186 16.3242 198.18 15.1184L199.528 16.2694V20.49Z" fill="#868DA6"/>
</g>
</g>
<defs>
<clipPath id="clip0_4790_48257">
<rect width="203" height="29" fill="white" transform="translate(0.322266 0.748047)"/>
</clipPath>
</defs>
</svg>
