<svg width="195" height="45" viewBox="0 0 195 45" fill="none" xmlns="http://www.w3.org/2000/svg">
<g clip-path="url(#clip0_4790_48243)">
<path d="M19.6384 22.3935H26.0454C27.911 22.3935 29.4373 20.8819 29.4373 19.0345C29.4373 17.187 27.911 15.6755 26.0454 15.6755H19.6384V22.3935Z" fill="#868DA6"/>
<path fill-rule="evenodd" clip-rule="evenodd" d="M23.0286 44.7867C35.5223 44.7867 45.6416 34.7657 45.6416 22.3934C45.6416 10.0211 35.5223 0 23.0286 0C10.5348 0 0.415527 10.0211 0.415527 22.3934C0.415527 34.7657 10.5348 44.7867 23.0286 44.7867ZM15.1157 11.1968H26.0454C30.4173 11.1968 33.9599 14.705 33.9599 19.0345C33.9599 23.3638 30.4173 26.8721 26.0454 26.8721H19.6384V33.5902H15.1157V11.1968Z" fill="#868DA6"/>
<path d="M69.405 19.6505C69.405 18.4189 68.444 17.6724 67.2002 17.6724H63.8648V21.6099H67.2002C68.444 21.6099 69.405 20.8635 69.405 19.6505ZM60.7178 29.8581V14.9292H67.6525C70.8748 14.9292 72.6274 17.0753 72.6274 19.6505C72.6274 22.2071 70.8559 24.3531 67.6525 24.3531H63.8836V29.8581H60.7178Z" fill="#868DA6"/>
<path d="M74.5303 29.858V18.9785H77.3569V20.4154C78.1295 19.501 79.4486 18.7173 80.7866 18.7173V21.4418C80.5793 21.4045 80.3343 21.3858 80.0139 21.3858C79.0717 21.3858 77.828 21.9083 77.3758 22.5988V29.8766H74.5303V29.858Z" fill="#868DA6"/>
<path d="M90.2665 24.2782C90.2665 22.6361 89.286 21.1992 87.5147 21.1992C85.7624 21.1992 84.7825 22.6361 84.7825 24.2782C84.7825 25.9578 85.7624 27.376 87.5147 27.376C89.286 27.376 90.2665 25.9391 90.2665 24.2782ZM81.8428 24.2782C81.8428 21.2738 83.9721 18.7173 87.496 18.7173C91.0573 18.7173 93.187 21.2738 93.187 24.2782C93.187 27.2827 91.0573 29.858 87.496 29.858C83.9721 29.858 81.8428 27.2827 81.8428 24.2782Z" fill="#868DA6"/>
<path d="M102.684 26.1633V22.4124C102.213 21.7033 101.196 21.1993 100.272 21.1993C98.6521 21.1993 97.5396 22.4497 97.5396 24.2785C97.5396 26.1259 98.6521 27.3762 100.272 27.3762C101.196 27.3762 102.213 26.8724 102.684 26.1633ZM102.684 29.8581V28.2347C101.836 29.2983 100.686 29.8581 99.3678 29.8581C96.6727 29.8581 94.6191 27.8427 94.6191 24.2785C94.6191 20.8262 96.6352 18.7174 99.3678 18.7174C100.631 18.7174 101.836 19.2399 102.684 20.341V14.9292H105.529V29.8581H102.684Z" fill="#868DA6"/>
<path d="M115.554 29.858V28.2531C114.819 29.0369 113.538 29.858 111.786 29.858C109.43 29.858 108.318 28.589 108.318 26.5176V18.9785H111.144V25.4166C111.144 26.8908 111.918 27.376 113.124 27.376C114.216 27.376 115.083 26.7788 115.573 26.163V18.9785H118.4V29.858H115.554Z" fill="#868DA6"/>
<path d="M120.491 24.2782C120.491 21.0312 122.885 18.7173 126.182 18.7173C128.387 18.7173 129.706 19.6689 130.422 20.6394L128.575 22.3561C128.067 21.6097 127.294 21.2178 126.314 21.2178C124.599 21.2178 123.412 22.4495 123.412 24.2969C123.412 26.1444 124.619 27.3947 126.314 27.3947C127.294 27.3947 128.067 26.9468 128.575 26.2376L130.422 27.9545C129.706 28.9249 128.387 29.8953 126.182 29.8953C122.885 29.858 120.491 27.5439 120.491 24.2782Z" fill="#868DA6"/>
<path d="M132.853 26.9281V21.4045H131.082V18.9598H132.853V16.0674H135.68V18.9784H137.847V21.4231H135.68V26.2003C135.68 26.8908 136.038 27.3947 136.66 27.3947C137.074 27.3947 137.489 27.2454 137.64 27.0587L138.243 29.1861C137.828 29.5593 137.074 29.8766 135.887 29.8766C133.89 29.8579 132.853 28.8502 132.853 26.9281Z" fill="#868DA6"/>
<path d="M155.901 29.8581V23.4201H148.91V29.8581H145.763V14.9292H148.91V20.6955H155.901V14.9292H159.086V29.8581H155.901Z" fill="#868DA6"/>
<path d="M169.166 29.858V28.2531C168.431 29.0369 167.149 29.858 165.397 29.858C163.041 29.858 161.93 28.589 161.93 26.5176V18.9785H164.757V25.4166C164.757 26.8908 165.529 27.376 166.735 27.376C167.828 27.376 168.695 26.7788 169.185 26.163V18.9785H172.012V29.858H169.166Z" fill="#868DA6"/>
<path d="M182.018 29.858V23.1772C182.018 21.703 181.245 21.1992 180.039 21.1992C178.928 21.1992 178.08 21.815 177.59 22.4308V29.858H174.763V18.9785H177.59V20.3407C178.287 19.557 179.606 18.7173 181.339 18.7173C183.714 18.7173 184.845 20.0422 184.845 22.0949V29.858H182.018Z" fill="#868DA6"/>
<path d="M188.237 26.9281V21.4045H186.466V18.9598H188.237V16.0674H191.063V18.9784H193.23V21.4231H191.063V26.2003C191.063 26.8908 191.422 27.3947 192.044 27.3947C192.458 27.3947 192.872 27.2454 193.023 27.0587L193.626 29.1861C193.212 29.5593 192.458 29.8766 191.27 29.8766C189.274 29.8579 188.237 28.8502 188.237 26.9281Z" fill="#868DA6"/>
</g>
<defs>
<clipPath id="clip0_4790_48243">
<rect width="194" height="45" fill="white" transform="translate(0.125)"/>
</clipPath>
</defs>
</svg>
