<svg width="226" height="86" viewBox="0 0 226 86" fill="none" xmlns="http://www.w3.org/2000/svg">
<rect width="226" height="86" fill="white"/>
<path d="M42.5084 40.447C42.5084 41.0665 42.3889 41.6241 42.1462 42.1125C41.9071 42.6044 41.5847 43.0235 41.1827 43.3771C40.7806 43.7305 40.3242 44.0112 39.8134 44.2225C39.3027 44.4339 38.7666 44.5651 38.2124 44.6125C37.9299 44.6379 37.6329 44.6417 37.325 44.6234C37.0171 44.6052 36.6911 44.5468 36.3433 44.4449C36.4158 44.2699 36.4991 44.0876 36.5933 43.8946C36.6838 43.7014 36.7961 43.5265 36.9265 43.3624C37.0569 43.1984 37.2054 43.0636 37.3721 42.9543C37.5387 42.8413 37.727 42.7757 37.9371 42.7502C38.1943 42.7247 38.437 42.6481 38.658 42.517C38.8789 42.3857 39.0745 42.2181 39.2411 42.014C39.4078 41.8099 39.5382 41.5694 39.6396 41.2997C39.7374 41.0264 39.7881 40.7422 39.7881 40.4434C39.7881 40.1227 39.7265 39.8201 39.6034 39.5395C39.4802 39.2626 39.3027 39.0147 39.0745 38.807C38.8463 38.5956 38.5746 38.428 38.2595 38.304C37.9444 38.1802 37.5966 38.1182 37.2127 38.1182C37.0388 38.1182 36.8939 38.1219 36.778 38.1291C36.6621 38.1364 36.5462 38.1401 36.4375 38.1474C36.3252 38.1547 36.2093 38.1656 36.0862 38.1838C35.963 38.2021 35.8217 38.2166 35.6587 38.2312V49.9952H33V36.6349C33.4926 36.5475 33.9309 36.4746 34.3149 36.42C34.6952 36.3653 35.0466 36.3215 35.3617 36.2887C35.6768 36.2596 35.9811 36.2377 36.2781 36.2232C36.5752 36.2123 36.8903 36.2049 37.2199 36.2049C37.9733 36.2049 38.6688 36.3033 39.31 36.5038C39.9511 36.7042 40.5089 36.9848 40.9834 37.3492C41.458 37.7137 41.831 38.1583 42.1027 38.6794C42.3708 39.2005 42.5084 39.791 42.5084 40.447Z" fill="black"/>
<path d="M50.033 46.9087L49.0514 49.8679H46.4434L51.2718 36.3364H53.8653L58.6938 49.8679H55.9554L52.6265 39.7985L52.478 39.1098L52.3114 39.8351L50.7393 44.6565L50.5184 45.0282L50.7973 44.9918H52.1991C52.4708 44.9918 52.7025 45.0537 52.9018 45.1776C53.0974 45.3016 53.2713 45.4583 53.4198 45.6442C53.5683 45.83 53.695 46.0377 53.8001 46.2673C53.9052 46.4969 53.9884 46.712 54.0501 46.9087H50.033Z" fill="black"/>
<path d="M73.9774 40.356C73.9774 41.0994 73.8108 41.7446 73.4776 42.2912C73.1443 42.8379 72.7024 43.2788 72.1446 43.6141L71.6266 43.8182C71.6773 43.8436 71.7425 43.8765 71.8295 43.9129C71.9163 43.9493 71.9852 43.9895 72.0323 44.0259C72.4017 44.3502 72.6915 44.7328 72.9016 45.1702C73.1117 45.6112 73.2928 46.0886 73.4485 46.6024C73.6043 47.1163 73.7565 47.6629 73.9122 48.2387C74.068 48.8182 74.2781 49.4013 74.5497 49.9989H71.8295C71.6085 49.5289 71.4309 49.0222 71.3042 48.483C71.1738 47.9436 71.0361 47.4188 70.8876 46.9086C70.7391 46.3983 70.5653 45.9282 70.3696 45.4946C70.1741 45.0609 69.9024 44.7074 69.5546 44.434C69.2974 44.4596 69.0222 44.4632 68.7324 44.4449C68.4426 44.4268 68.1384 44.3685 67.816 44.2664C67.8884 44.0915 67.9718 43.9093 68.0659 43.7161C68.1564 43.5229 68.2687 43.3444 68.3992 43.1767C68.5295 43.0091 68.678 42.8706 68.8447 42.7577C69.0113 42.6447 69.1997 42.5791 69.4097 42.5536C69.6669 42.5281 69.9097 42.4588 70.1306 42.3385C70.3516 42.2219 70.5471 42.0652 70.7138 41.8721C70.8804 41.6789 71.0108 41.4529 71.1122 41.1942C71.21 40.9354 71.2607 40.6549 71.2607 40.356C71.2607 40.0317 71.1919 39.7365 71.0578 39.4631C70.9202 39.1898 70.7391 38.953 70.5109 38.7562C70.2828 38.5557 70.0111 38.4026 69.696 38.2896C69.3808 38.1767 69.0439 38.122 68.6889 38.122C68.5151 38.122 68.3702 38.1257 68.2543 38.1329C68.1384 38.1402 68.0224 38.1438 67.9138 38.1512C67.8015 38.1585 67.6855 38.1694 67.5624 38.1876C67.4393 38.2059 67.298 38.2204 67.135 38.235V49.9989H64.4727V36.6351C64.9652 36.5477 65.4035 36.4747 65.7875 36.42C66.1679 36.3655 66.5192 36.3217 66.8343 36.2889C67.1495 36.2598 67.4538 36.2379 67.7508 36.2233C68.0477 36.2123 68.3629 36.2051 68.6926 36.2051C69.4206 36.2051 70.1052 36.2998 70.7464 36.4857C71.3876 36.6715 71.9489 36.9413 72.4307 37.2948C72.9125 37.6482 73.2928 38.0819 73.5681 38.5958C73.8362 39.1133 73.9774 39.6963 73.9774 40.356Z" fill="black"/>
<path d="M83.4724 46.9087L82.4908 49.8679H79.8828L84.7112 36.3364H87.3012L92.1296 49.8679H89.3912L86.0623 39.7985L85.9139 39.1098L85.7472 39.8351L84.1752 44.6565L83.9542 45.0282L84.2331 44.9918H85.6385C85.9102 44.9918 86.142 45.0537 86.3413 45.1776C86.5369 45.3016 86.7107 45.4583 86.8593 45.6442C87.0078 45.83 87.1345 46.0377 87.2395 46.2673C87.3447 46.4969 87.4279 46.712 87.4895 46.9087H83.4724Z" fill="black"/>
<path d="M103.09 48.1805C103.793 48.1805 104.401 48.031 104.912 47.7358C105.423 47.437 105.847 47.047 106.18 46.5623C106.513 46.0777 106.756 45.531 106.911 44.9224C107.067 44.3137 107.143 43.7015 107.143 43.082C107.143 42.3495 107.049 41.6753 106.857 41.0521C106.665 40.4326 106.364 39.8968 105.959 39.4523C105.549 39.0076 105.028 38.6577 104.39 38.4026C103.753 38.1475 102.989 38.02 102.101 38.02C101.855 38.02 101.598 38.0309 101.33 38.0564C101.065 38.0819 100.79 38.1184 100.504 38.1694V49.875H97.9102V36.5877C98.7361 36.4128 99.5076 36.2889 100.221 36.216C100.935 36.1395 101.565 36.103 102.108 36.103C103.34 36.103 104.441 36.2598 105.412 36.5768C106.379 36.8939 107.201 37.3495 107.871 37.9434C108.545 38.5411 109.056 39.2663 109.407 40.1301C109.758 40.9938 109.936 41.9741 109.936 43.082C109.936 44.0623 109.769 44.9807 109.436 45.8371C109.103 46.6935 108.646 47.437 108.067 48.0711C107.487 48.7052 106.792 49.2008 105.984 49.5617C105.176 49.9224 104.303 50.101 103.365 50.101C103.191 50.101 103.036 50.0973 102.894 50.0937C102.753 50.0864 102.601 50.0718 102.442 50.0463C102.282 50.0208 102.105 49.9916 101.916 49.9516C101.724 49.9152 101.493 49.8605 101.221 49.7839C101.293 49.6236 101.387 49.4487 101.496 49.2628C101.608 49.077 101.735 48.902 101.884 48.7416C102.032 48.5813 102.203 48.4465 102.402 48.3408C102.601 48.235 102.829 48.1805 103.09 48.1805Z" fill="black"/>
<path d="M121.412 50.1338C120.34 50.1338 119.391 49.9516 118.565 49.5944C117.739 49.2337 117.04 48.7417 116.464 48.1148C115.892 47.488 115.457 46.7482 115.16 45.8918C114.863 45.0354 114.715 44.1061 114.715 43.1002C114.715 42.1308 114.867 41.2197 115.168 40.3633C115.468 39.5069 115.907 38.7598 116.483 38.122C117.055 37.4843 117.754 36.9813 118.583 36.6132C119.409 36.2488 120.355 36.0629 121.412 36.0629C122.619 36.0629 123.647 36.2744 124.491 36.697C125.335 37.1198 126.027 37.6665 126.563 38.3444C127.099 39.0222 127.487 39.7765 127.73 40.6147C127.969 41.4529 128.092 42.2802 128.092 43.1002C128.092 44.0186 127.943 44.9005 127.646 45.7423C127.349 46.5879 126.922 47.335 126.36 47.9836C125.799 48.636 125.103 49.1571 124.27 49.5471C123.437 49.9406 122.485 50.1338 121.412 50.1338ZM121.412 37.9835C120.771 37.9835 120.21 38.122 119.728 38.3917C119.246 38.6651 118.844 39.0368 118.518 39.5069C118.192 39.9806 117.946 40.5236 117.779 41.1468C117.613 41.7663 117.529 42.4187 117.529 43.1002C117.529 43.7452 117.613 44.3757 117.779 44.9879C117.946 45.6039 118.192 46.1506 118.518 46.6279C118.844 47.1054 119.25 47.4916 119.728 47.7832C120.21 48.0747 120.771 48.2206 121.412 48.2206C121.916 48.2206 122.405 48.1038 122.872 47.878C123.339 47.6484 123.752 47.3167 124.111 46.883C124.47 46.4494 124.756 45.9136 124.969 45.2832C125.187 44.649 125.292 43.9238 125.292 43.1075C125.292 42.3749 125.201 41.6971 125.024 41.0703C124.846 40.4434 124.589 39.9041 124.256 39.4522C123.923 39.0003 123.517 38.6432 123.035 38.3808C122.561 38.111 122.017 37.9835 121.412 37.9835Z" fill="black"/>
<path d="M135.583 49.8643H132.754L136.416 43.8147C136.528 43.9751 136.655 44.1864 136.803 44.4488C136.952 44.7075 137.071 44.9918 137.165 45.2942C137.257 45.5968 137.307 45.9138 137.314 46.2418C137.321 46.5698 137.242 46.8795 137.083 47.1638L135.583 49.8643ZM132.956 36.3364H135.879L138.155 40.7862L138.339 41.362L138.487 40.7862L140.763 36.3364H143.667L139.655 43.0202L143.871 49.8679H141.001L132.956 36.3364Z" fill="black"/>
<path fill-rule="evenodd" clip-rule="evenodd" d="M186.87 58.0244C195.045 49.7809 195.045 36.4243 186.87 28.1808C185.087 26.3842 182.179 26.3842 180.396 28.1808C178.615 29.9775 178.615 32.9112 180.396 34.7115C184.989 39.3434 184.989 46.8618 180.396 51.4974C175.803 56.1293 168.345 56.1293 163.752 51.4974C161.448 49.1723 160.304 46.1401 160.304 43.1044C160.304 33.0314 167.302 24.6057 176.654 22.5102C175.184 22.1822 173.645 22 172.076 22C160.518 22 151.146 31.4462 151.146 43.1044C151.146 45.8086 151.654 48.5127 152.683 51.0528C154.907 56.3772 158.928 60.4187 163.93 62.5617C168.165 64.2927 172.515 64.6389 176.651 63.6986C180.396 62.8532 183.96 60.9581 186.87 58.0244Z" fill="#3CC1CA"/>
</svg>
