<svg width="45" height="36" viewBox="0 0 45 36" fill="none" xmlns="http://www.w3.org/2000/svg">
<path d="M24.9868 25.634C24.9868 31.1737 29.3684 35.299 35.0526 35.299C40.7368 35.299 45 31.1737 45 25.634C45 21.0372 42.0395 17.6191 37.8947 16.3226L43.2237 1H35.1711L25.9342 21.3908C25.3421 22.9231 24.9868 24.1017 24.9868 25.634ZM0 25.634C0 31.1737 4.38158 35.299 10.0658 35.299C15.75 35.299 20.0132 31.1737 20.0132 25.634C20.0132 21.0372 17.0526 17.6191 12.9079 16.3226L18.2368 1H10.1842L0.947368 21.3908C0.355263 22.9231 0 24.1017 0 25.634Z" fill="#3CC1CA"/>
</svg>
