<svg width="226" height="86" viewBox="0 0 226 86" fill="none" xmlns="http://www.w3.org/2000/svg">
<rect width="226" height="86" fill="white"/>
<g clip-path="url(#clip0_8106_14632)">
<path d="M85.5687 44.5569V34.6477H90.0726V43.7376C90.0726 45.7318 90.6186 47.8806 93.3938 47.8806C96.1689 47.8806 96.7754 45.7318 96.7754 43.7376V34.6477H101.188V44.495C101.188 48.5762 98.5952 51.9617 93.3938 51.9617C88.2225 51.9617 85.5687 48.5762 85.5687 44.5569Z" fill="#1C1468"/>
<path d="M113.895 34.4321C111.302 34.4321 109.361 35.3751 108.102 37.2302V34.6485H103.856V56.7085H108.33V49.5664C109.391 50.8959 111.044 51.7461 113.44 51.7461C117.535 51.7461 121.341 48.5925 121.341 43.0427C121.341 37.3539 117.929 34.4321 113.895 34.4321ZM112.485 47.6649C110.028 47.6649 108.239 46.0418 108.239 43.0427C108.239 40.1055 110.165 38.5442 112.743 38.5442C115.017 38.5442 116.837 40.0746 116.837 43.1355C116.837 46.1655 114.881 47.6649 112.485 47.6649Z" fill="#1C1468"/>
<path d="M122.597 45.9341C124.098 47.0162 126.312 48.0829 129.239 48.0829C131.029 48.0829 131.984 47.5882 131.984 46.6452C131.984 45.6713 130.71 45.3467 128.147 44.7592C124.25 43.8162 122.643 42.4094 122.643 39.6114C122.643 35.9013 125.524 34.2317 129.573 34.2317C132.196 34.2317 134.244 34.8191 135.396 35.5302V39.8587C134.122 38.9158 131.681 38.1892 129.482 38.1892C128.011 38.1892 127.056 38.5447 127.056 39.4877C127.056 40.3998 127.92 40.7554 130.028 41.2191C134.577 42.1776 136.276 43.6153 136.276 46.5524C136.276 51.3138 131.772 51.9631 129.088 51.9631C126.343 51.9631 123.901 51.1438 122.597 50.2008V45.9341Z" fill="#1C1468"/>
<path d="M137.617 30.1188C137.617 28.5265 138.77 27.4753 140.438 27.4753C142.288 27.4753 143.289 28.5111 143.289 30.1188C143.289 31.6493 142.303 32.7314 140.438 32.7314C138.77 32.7314 137.617 31.6493 137.617 30.1188Z" fill="#1C1468"/>
<path d="M142.698 34.6477H138.225V51.5288H142.698V34.6477Z" fill="#1C1468"/>
<path d="M157.802 27.8762V36.6105C156.74 35.2811 155.087 34.4308 152.691 34.4308C148.596 34.4308 144.759 37.5844 144.759 43.1342C144.759 48.8386 148.217 51.7757 152.236 51.7757C154.829 51.7757 156.77 50.8327 158.028 48.9777V51.5594H162.275V27.8762H157.802ZM153.388 47.6636C151.113 47.6636 149.294 46.1333 149.294 43.0724C149.294 40.0424 151.25 38.5429 153.616 38.5429C156.102 38.5429 157.937 40.166 157.937 43.1651C157.922 46.025 155.936 47.6636 153.388 47.6636Z" fill="#1C1468"/>
<path d="M172.602 34.2317C168.022 34.2317 164.261 37.4317 164.261 43.3215C164.261 49.0568 168.265 51.9631 172.951 51.9631C175.802 51.9631 178.259 51.252 179.638 49.9379V46.0269C177.94 47.4337 175.924 47.9901 173.527 47.9901C171.131 47.9901 169.25 47.2017 168.629 44.8675H180.169C181.17 37.0607 176.909 34.2317 172.602 34.2317ZM168.568 41.5592C168.978 39.1167 170.419 38.1118 172.723 38.1118C174.649 38.1118 176.105 38.993 176.272 41.5283L168.568 41.5592Z" fill="#1C1468"/>
<path d="M75.1618 34.6477V43.3665C74.9495 51.4825 68.4286 58.0062 60.4065 58.0062C52.3995 58.0062 45.8787 51.4825 45.6664 43.3665V34.6477H53.2942V43.3665C53.5065 47.2003 56.6001 50.2303 60.4065 50.2303C64.2128 50.2303 67.3216 47.2003 67.5339 43.3665V34.6477H75.1618Z" fill="#0047FF"/>
<path d="M60.4213 41.8672L75.8287 26.1455H60.4213V41.8672Z" fill="#0047FF"/>
</g>
<defs>
<clipPath id="clip0_8106_14632">
<rect width="134.667" height="32" fill="white" transform="translate(45.6664 26.1455)"/>
</clipPath>
</defs>
</svg>
