<svg width="226" height="86" viewBox="0 0 226 86" fill="none" xmlns="http://www.w3.org/2000/svg">
<rect width="226" height="86" fill="white"/>
<path d="M59.7471 32.3264C59.6979 32.2773 59.6325 32.2494 59.5642 32.2484H59.5399C59.5021 32.2524 59.4655 32.2646 59.4326 32.2843C59.3997 32.304 59.3711 32.3307 59.3489 32.3626L43.1883 56.2763C43.1673 56.3087 43.1531 56.3452 43.1466 56.3836C43.1401 56.422 43.1415 56.4614 43.1506 56.4992C43.1607 56.537 43.1784 56.5721 43.2025 56.6024C43.2266 56.6326 43.2566 56.6573 43.2905 56.6747C45.2462 57.6488 47.3897 58.1516 49.56 58.1454C52.4504 58.1464 55.2757 57.2565 57.6757 55.5889C60.0758 53.9214 61.9418 51.5518 63.036 48.7822C64.1302 46.0126 64.403 42.9685 63.8197 40.0378C63.2364 37.1071 61.8233 34.4225 59.7606 32.3264H59.7471ZM43.3901 33.045L48.7258 40.9169L48.9384 40.6022L56.1281 29.9782C56.1485 29.9457 56.1622 29.9093 56.1682 29.871C56.1743 29.8328 56.1725 29.7938 56.1632 29.7563C56.1538 29.7188 56.137 29.6837 56.1138 29.6534C56.0906 29.623 56.0616 29.5979 56.0285 29.5798C53.8031 28.4323 51.3307 27.8944 48.8474 28.0172C46.364 28.1401 43.9525 28.9198 41.8429 30.2818C41.7839 30.3226 41.7429 30.3859 41.7288 30.4579C41.7147 30.5299 41.7286 30.6048 41.7676 30.6662L43.3901 33.045ZM43.7937 48.1955L46.2988 44.4963L42.6986 39.2038L38.7916 33.4322C38.7691 33.398 38.7391 33.3699 38.704 33.35C38.6689 33.3301 38.6298 33.3192 38.5898 33.318C38.5514 33.3184 38.5135 33.3273 38.4787 33.3441C38.4439 33.361 38.413 33.3853 38.388 33.4155C36.0166 36.3513 34.8136 40.1116 35.0235 43.9324C35.2334 47.7533 36.8404 51.3481 39.5181 53.9866C39.5671 54.0341 39.6314 54.0609 39.6984 54.0618H39.7226C39.7604 54.059 39.797 54.0472 39.8296 54.0274C39.8623 54.0076 39.8901 53.9803 39.911 53.9476L43.7937 48.1955Z" fill="#1B83BD"/>
<path d="M68.6168 55.4545C68.574 55.455 68.5319 55.4433 68.4952 55.4206C68.4585 55.3978 68.4286 55.365 68.4089 55.3258C68.3891 55.2866 68.3802 55.2424 68.3831 55.1983C68.3861 55.1541 68.4009 55.1117 68.4257 55.0757L75.5777 44.5129L66.5557 31.1675C66.5314 31.1311 66.517 31.0886 66.5142 31.0444C66.5114 31.0003 66.5201 30.9562 66.5395 30.9168C66.5593 30.8777 66.5891 30.8451 66.6257 30.8225C66.6622 30.7999 66.7041 30.7882 66.7467 30.7886H70.9685C71.0076 30.786 71.0467 30.7939 71.082 30.8115C71.1174 30.829 71.1478 30.8557 71.1703 30.8889L77.994 40.9502L84.7935 30.8889C84.815 30.8573 84.8437 30.8317 84.877 30.8142C84.9103 30.7967 84.9472 30.7879 84.9846 30.7886H89.1821C89.2249 30.7881 89.2669 30.7998 89.3036 30.8226C89.3403 30.8453 89.3702 30.8781 89.39 30.9173C89.4098 30.9565 89.4187 31.0007 89.4157 31.0449C89.4128 31.089 89.398 31.1314 89.3732 31.1675L73.0215 55.3403C73 55.372 72.9714 55.398 72.9381 55.4159C72.9049 55.4338 72.868 55.4433 72.8305 55.4433L68.6168 55.4545ZM92.9895 55.5241C92.5836 55.5217 92.1782 55.4919 91.776 55.435C87.2502 54.8445 84.0858 51.0311 84.0858 46.1703C84.0858 40.8583 87.9121 36.8499 92.9868 36.8499C97.8113 36.8499 101.328 40.7497 101.379 46.0923C101.386 46.4642 101.373 46.8361 101.342 47.2065L101.285 47.6912C101.28 47.7501 101.253 47.8047 101.211 47.8444C101.169 47.8841 101.113 47.906 101.056 47.9057H88.1004L88.1327 48.0199C88.4068 49.1466 89.0444 50.1427 89.9398 50.8433C90.8352 51.5438 91.9349 51.9068 93.0568 51.8723C94.8138 51.8723 96.2346 51.1508 96.8561 49.9447C96.8757 49.9061 96.9051 49.8738 96.9411 49.8512C96.9772 49.8286 97.0185 49.8166 97.0606 49.8166H100.707C100.744 49.8166 100.78 49.8261 100.813 49.844C100.846 49.862 100.874 49.8879 100.895 49.9196C100.917 49.9502 100.932 49.9861 100.938 50.024C100.943 50.062 100.94 50.1008 100.927 50.1369L100.833 50.4155C99.937 53.1286 97.5019 55.0004 94.3214 55.4294C93.8798 55.4901 93.435 55.5217 92.9895 55.5241V55.5241ZM92.8631 40.4962C90.1481 40.5491 88.644 42.5213 88.1381 44.3514L88.1058 44.4684H97.4023L97.3781 44.3569C96.8588 41.9809 95.2255 40.5408 93.0164 40.5018H92.8631V40.4962ZM110.536 55.5938C109.896 55.5943 109.257 55.5412 108.625 55.435C105.515 54.9141 103.513 53.0756 102.867 50.1146C102.859 50.0794 102.859 50.0427 102.867 50.0074C102.875 49.9721 102.891 49.9392 102.913 49.9113C102.935 49.8825 102.962 49.8593 102.994 49.8434C103.026 49.8275 103.061 49.8192 103.096 49.8194H106.497C106.542 49.8194 106.587 49.8331 106.624 49.8588C106.662 49.8846 106.692 49.9212 106.71 49.9642C107.294 51.357 108.569 52.0144 110.603 52.0144C112.702 52.0144 114.115 51.1787 114.115 49.9252C114.115 48.6021 112.672 48.2372 112.051 48.1425L108.475 47.5074C104.11 46.8054 103.19 44.3319 103.19 42.3792C103.19 39.0366 106.018 36.7803 110.226 36.7803C113.065 36.7803 116.536 37.9781 117.513 41.2901C117.603 41.5923 117.679 41.8991 117.739 42.2093C117.745 42.2439 117.743 42.2793 117.733 42.3131C117.724 42.3468 117.708 42.3779 117.685 42.4043C117.664 42.4317 117.637 42.4538 117.606 42.4687C117.575 42.4837 117.542 42.4912 117.508 42.4906H114.222C114.174 42.4907 114.128 42.4754 114.089 42.447C114.05 42.4186 114.02 42.3784 114.004 42.3319C113.919 42.1002 113.812 41.8781 113.684 41.6689C112.955 40.5547 111.448 40.2761 110.234 40.2761C108.297 40.2761 107.006 41.0449 107.006 42.187C107.006 42.5268 107.006 43.5519 109.443 43.9363L112.578 44.4934C116.103 45.0895 117.89 46.8639 117.89 49.7637C117.89 52.733 115.855 54.8445 112.444 55.4155C111.813 55.5285 111.175 55.5881 110.536 55.5938V55.5938ZM124.557 55.1035C124.511 55.1024 124.465 55.087 124.427 55.0593C124.389 55.0315 124.359 54.9926 124.342 54.9475L118.035 37.6048C118.022 37.5686 118.018 37.5297 118.022 37.4914C118.027 37.4531 118.041 37.4165 118.062 37.3848C118.083 37.352 118.111 37.3251 118.144 37.3066C118.178 37.2881 118.215 37.2786 118.253 37.2789H121.915C121.963 37.2789 122.009 37.2941 122.048 37.3226C122.087 37.351 122.117 37.3912 122.133 37.4377L125.9 48.1675L129.398 37.4433C129.414 37.3955 129.443 37.354 129.483 37.3245C129.522 37.2951 129.57 37.2791 129.619 37.2789H132.465C132.514 37.2797 132.561 37.2959 132.6 37.3253C132.639 37.3548 132.668 37.3959 132.683 37.4433L136.176 48.1592L140.01 37.4516C140.026 37.4051 140.056 37.3649 140.095 37.3365C140.134 37.3081 140.18 37.2928 140.228 37.2928H143.866C143.904 37.2925 143.941 37.3017 143.975 37.3197C144.008 37.3377 144.037 37.3639 144.058 37.396C144.08 37.4282 144.094 37.4653 144.098 37.5041C144.102 37.5429 144.098 37.5823 144.084 37.6187L137.777 54.9587C137.76 55.0042 137.73 55.0434 137.691 55.0712C137.652 55.099 137.606 55.1141 137.559 55.1147H134.699C134.65 55.1143 134.603 55.0982 134.564 55.0687C134.525 55.0393 134.496 54.9978 134.481 54.9503L131.058 44.421L127.619 54.9503C127.604 54.9981 127.574 55.0396 127.534 55.069C127.495 55.0985 127.447 55.1144 127.399 55.1147H124.557V55.1035ZM152.622 55.5186C152.233 55.5178 151.845 55.4899 151.459 55.435C147.068 54.825 143.756 50.8416 143.756 46.1647C143.756 41.0282 147.733 36.8472 152.622 36.8444C154.298 36.8277 155.947 37.2893 157.387 38.1786L157.522 38.2622V37.4098C157.522 37.346 157.547 37.2851 157.591 37.2403C157.635 37.1954 157.694 37.1703 157.756 37.1703H161.119C161.15 37.1699 161.18 37.1758 161.208 37.1877C161.236 37.1997 161.262 37.2173 161.284 37.2396C161.305 37.2619 161.322 37.2885 161.334 37.3177C161.345 37.3469 161.351 37.3783 161.351 37.4098V54.928C161.351 54.9596 161.345 54.9909 161.334 55.0201C161.322 55.0494 161.305 55.0759 161.284 55.0982C161.262 55.1206 161.236 55.1382 161.208 55.1501C161.18 55.162 161.15 55.1679 161.119 55.1676H157.756C157.725 55.1679 157.695 55.162 157.666 55.1501C157.638 55.1383 157.612 55.1207 157.59 55.0984C157.569 55.0761 157.551 55.0496 157.539 55.0203C157.528 54.9911 157.522 54.9597 157.522 54.928V54.0924L157.387 54.1759C156.319 54.8431 155.127 55.2684 153.889 55.4238C153.469 55.4836 153.046 55.5152 152.622 55.5186ZM152.929 40.5296C151.503 40.5494 150.144 41.1539 149.148 42.2104C148.153 43.2669 147.603 44.6891 147.62 46.1647C147.604 47.6642 148.156 49.1104 149.159 50.1926C149.647 50.7155 150.232 51.1305 150.88 51.4125C151.527 51.6945 152.223 51.8376 152.926 51.8333C153.823 51.8452 154.71 51.6317 155.511 51.2111C156.311 50.7905 157.001 50.1753 157.522 49.4182V42.9419C157.001 42.1854 156.312 41.5707 155.512 41.1506C154.712 40.7305 153.825 40.5174 152.929 40.5296V40.5296ZM164.321 55.1704C164.259 55.1704 164.2 55.1452 164.157 55.1004C164.113 55.0555 164.088 54.9946 164.087 54.9308V37.4126C164.087 37.3483 164.112 37.2867 164.156 37.2413C164.199 37.1958 164.259 37.1703 164.321 37.1703H167.685C167.746 37.171 167.805 37.1969 167.848 37.2422C167.892 37.2876 167.916 37.3488 167.916 37.4126V38.8639L168.061 38.7413C169.539 37.4999 171.389 36.8302 173.292 36.8472H173.83C173.892 36.8471 173.951 36.8723 173.995 36.9171C174.039 36.962 174.064 37.0229 174.064 37.0867V40.4516C174.064 40.5142 174.041 40.5743 173.998 40.6191C173.956 40.6638 173.899 40.6897 173.838 40.6912L173.322 40.7051C172.236 40.7293 171.173 41.0346 170.23 41.5931C169.287 42.1517 168.494 42.9458 167.924 43.9029V54.9308C167.924 54.9624 167.919 54.9937 167.907 55.0229C167.896 55.0522 167.879 55.0787 167.857 55.101C167.835 55.1233 167.81 55.141 167.782 55.1529C167.753 55.1648 167.723 55.1707 167.693 55.1704H164.321ZM182.906 55.5186C182.512 55.5168 182.118 55.4889 181.728 55.435C177.18 54.8556 174.005 51.045 174.005 46.1647C174.005 40.8527 177.831 36.8472 182.906 36.8444C187.731 36.8444 191.247 40.7441 191.296 46.0895C191.302 46.4614 191.29 46.8333 191.258 47.2037L191.204 47.694C191.198 47.7529 191.171 47.8072 191.128 47.8467C191.085 47.8862 191.03 47.9082 190.973 47.9085H178.017L178.049 48.0255C178.682 50.3988 180.571 51.8751 182.973 51.8751C184.728 51.8751 186.148 51.1564 186.77 49.9531C186.79 49.9145 186.819 49.8821 186.855 49.8595C186.891 49.837 186.932 49.825 186.974 49.8249H190.62C190.658 49.825 190.695 49.8344 190.728 49.8524C190.761 49.8703 190.79 49.8962 190.811 49.928C190.833 49.9592 190.847 49.9951 190.852 50.0329C190.857 50.0707 190.853 50.1092 190.841 50.1453L190.75 50.4238C189.859 53.1146 187.346 55.0367 184.187 55.4378C183.762 55.4927 183.334 55.5206 182.906 55.5213V55.5186ZM182.836 40.4962C180.092 40.4962 178.566 42.4851 178.052 44.3458L178.02 44.4628H187.316L187.289 44.3514C186.751 41.9363 185.099 40.4962 182.836 40.4962V40.4962Z" fill="#333333"/>
</svg>
